<svg width="1200" height="250" viewBox="0 0 1200 250" fill="none" xmlns="http://www.w3.org/2000/svg">
<path d="M0 77.3453C0.501253 87.3254 5.41353 107.285 21.0526 107.285C36.6917 107.285 41.2698 120.592 41.604 127.246C42.0802 136.727 59.6491 143.214 65.6642 127.246C65.9209 126.502 66.1959 125.596 66.5019 124.588C68.3871 118.379 71.452 108.283 78.6967 108.283C89.2231 108.283 90.7268 136.727 90.7268 149.202C90.7268 156.231 89.4535 175.779 88.3419 192.844L88.3418 192.844C87.4808 206.062 86.7168 217.791 86.7168 221.058C86.7168 228.543 86.7168 250 103.759 250C119.956 250 119.855 231.522 119.805 222.406L119.805 222.4C119.802 221.926 119.799 221.477 119.799 221.058C119.799 217.893 119.241 212.436 118.541 205.594C117.365 194.097 115.789 178.689 115.789 163.673C115.789 139.721 117.794 95.3094 131.83 95.3094C144.067 95.3094 142.967 114.657 141.82 134.829C141.651 137.792 141.482 140.773 141.353 143.713C140.351 166.667 149.373 180.14 157.895 179.641C166.416 179.142 171.93 171.158 172.431 161.178C172.661 156.599 171.309 152.546 169.923 148.392C168.287 143.49 166.605 138.448 167.419 132.236C168.922 120.758 174.436 114.77 181.454 115.768C184.647 116.223 187.425 118.33 190.213 120.445C193.552 122.978 196.905 125.521 201.003 125.25C204.538 125.015 208.294 123.457 212.117 121.871C216.424 120.084 220.813 118.263 225.063 118.263C233.083 118.263 247.619 123.753 248.622 143.713C249.624 163.673 255.138 184.631 271.679 183.134C284.912 181.936 287.218 169.661 286.717 163.673C286.292 158.601 285.297 155 284.349 151.569L284.349 151.568C283.245 147.572 282.206 143.808 282.206 138.224C282.206 125.25 290.727 102.794 304.762 102.794C318.797 102.794 326.316 121.757 324.311 143.713C322.306 165.669 322.807 184.132 339.348 184.631C355.89 185.13 358.897 168.164 358.897 163.673C358.897 159.956 358.463 156.888 358.049 153.966C357.574 150.61 357.126 147.447 357.393 143.713C357.895 136.727 361.905 127.745 375.439 128.244C389.975 128.244 403.709 153.593 402.506 181.138C402.506 183.79 402.472 186.573 402.436 189.432L402.436 189.436C402.124 214.545 401.74 245.445 424.06 244.012C429.908 244.012 441.604 239.721 441.604 222.555C441.604 210.722 440.232 203.289 439.085 197.078C438.153 192.027 437.369 187.782 437.594 182.635C437.544 161.141 439.098 145.21 441.604 131.238C444.11 117.265 445.614 99.3014 458.145 99.3014C466.667 99.3014 466.165 113.772 465.163 125.25C464.16 136.727 463.659 149.202 479.198 149.202C494.737 149.202 499.248 132.735 499.749 120.758C500.251 108.782 502.757 99.3014 509.774 99.3014C513.064 99.3014 515.692 100.617 518.382 101.963C521.432 103.49 524.561 105.056 528.822 104.79C536.842 104.291 541.855 100.299 541.855 91.3174C541.855 85.8283 545.472 82.3994 551.378 82.3353C567.471 82.1607 566.215 130.993 565.915 153.693C565.879 156.4 565.836 159.047 565.793 161.628C565.242 195.185 564.876 217.494 583.96 216.567C604.511 215.569 600 184.631 596.992 173.653C595.928 169.768 594.425 166.071 592.97 162.495C590.315 155.965 587.823 149.839 588.471 143.713C589.474 134.232 595.489 125.749 604.511 126.248C608.462 126.466 613.086 130.99 618.256 136.05C624.893 142.544 632.431 149.919 640.602 150.2C647.385 150.432 650.021 144.253 652.838 137.646C656.058 130.097 659.516 121.989 669.674 122.255C684.912 122.655 685.046 136.727 683.208 143.713C681.704 157.851 678.897 189.421 679.699 202.595C680.702 219.062 682.206 240.02 699.248 240.02C715.831 240.02 715.804 221.595 715.79 212.327C715.79 212.069 715.789 211.819 715.789 211.577C715.789 207.454 714.945 200.914 714.031 193.838L714.03 193.835C712.953 185.494 711.779 176.409 711.779 169.661C711.779 157.186 715.789 143.713 726.316 143.713C734.684 143.713 737.033 154.749 738.904 163.537C739.386 165.804 739.837 167.921 740.351 169.661C742.857 178.144 746.867 189.122 756.391 189.122C765.915 189.122 770.426 181.637 770.426 169.661C770.426 163.903 769.499 157.454 768.537 150.756L768.537 150.755C767.497 143.521 766.416 135.997 766.416 128.743C766.416 114.77 769.925 102.295 786.466 102.295C803.687 102.295 808.548 116.221 813.21 129.576C817.504 141.877 821.629 153.693 835.088 153.693C848.131 153.693 852.17 144.99 856.127 136.464C859.926 128.28 863.649 120.259 875.188 120.259C887.299 120.259 891.594 130.017 895.769 139.501C899.715 148.466 903.554 157.186 913.784 157.186C925.469 157.186 929.742 153.036 933.545 149.342C936.594 146.381 939.341 143.713 945.363 143.713C958.897 143.713 970.927 158.184 970.927 181.637C970.927 205.09 974.436 222.555 988.972 222.555C1003.51 222.555 1010.53 208.084 1009.02 193.613C1008.57 189.295 1007.9 183.999 1007.18 178.31L1007.18 178.306C1005.48 164.929 1003.51 149.374 1003.51 139.222C1003.51 124.751 1008.52 94.3114 1031.58 94.3114C1054.64 94.3114 1058.65 106.786 1058.15 124.252C1057.93 131.609 1056.92 143.837 1055.86 156.683L1055.86 156.689C1054.4 174.335 1052.84 193.144 1053.13 202.096L1053.14 202.184C1053.64 217.685 1054.67 249.501 1071.68 249.501C1088.72 249.501 1097.74 234.032 1097.74 211.577C1097.74 198.599 1095.57 184.455 1093.73 172.515C1092.39 163.796 1091.23 156.252 1091.23 151.198C1091.23 139.222 1094.74 134.232 1100.75 134.232C1106.43 134.232 1110.44 138.792 1114.66 143.607C1119.39 148.99 1124.39 154.691 1132.33 154.691C1147.37 154.691 1150.88 140.22 1150.88 127.745C1150.88 115.269 1153.38 86.3273 1161.4 86.3273C1165.48 86.3273 1168.52 87.7442 1171.51 89.1383C1174.4 90.488 1177.25 91.8164 1180.95 91.8164C1186.3 91.8164 1190.54 88.8087 1190.98 81.8363C1191.48 73.8523 1192.98 68.8623 1195.99 68.8623C1197.99 68.8623 1200 73.3533 1200 77.8443V0H0V77.3453Z" fill="white"/>
<circle cx="224.5" cy="143.5" r="11.5" fill="white"/>
</svg>
