<svg width="2274" height="250" viewBox="0 0 2274 250" fill="none" xmlns="http://www.w3.org/2000/svg">
<path d="M21.0526 107.285C5.41353 107.285 0.501253 87.3254 0 77.3453V0H2274V76C2274 38 2224.29 46.5 2224.29 75.8056C2224.29 85.5 2229.94 95.6074 2229.94 103.5C2229.94 109 2227.84 125.5 2211.44 125.5C2195.04 125.5 2190.94 105.167 2190.94 95C2190.94 73.8 2186 51.5 2180 51.5C2174.58 51.5 2172.42 57.6798 2171 66C2169.28 76.7295 2164.61 86.5 2156.94 86.5C2152.11 86.5 2150.14 83.4353 2148 80.1237C2145.5 76.2323 2142.77 72 2134.94 72C2121.67 72 2120.08 92.2148 2118.4 113.484C2116.55 137.092 2114.59 162 2096.44 162C2088.44 162 2081.94 155.5 2081.94 142C2081.94 128.5 2077.94 121.5 2072.44 121.5C2066.94 121.5 2060.44 128.5 2060.44 157C2060.44 172.252 2062.3 182.636 2064.03 192.289C2065.53 200.673 2066.94 208.506 2066.94 218.5C2066.94 240 2055.94 244.5 2047.94 244.5C2039.94 244.5 2026.44 236 2026.44 217.5C2026.44 209.613 2028.16 204.907 2030.15 199.507C2032.81 192.241 2035.94 183.718 2035.94 164.5C2035.94 137.7 2018.94 130.667 2010.44 130.5C2003.99 130.5 2001.58 136.818 1999.1 143.283C1996.51 150.06 1993.86 157 1986.44 157C1975.43 157 1974.51 149.523 1973.62 142.228C1972.78 135.281 1971.95 128.5 1962.44 128.5C1956.49 128.5 1952.41 133.454 1948.48 138.234C1944.81 142.692 1941.26 147 1936.44 147C1925.59 147 1921.99 132.625 1918.11 117.142C1913.58 99.0749 1908.67 79.5 1891.44 79.5C1887 79.5 1883.65 82.1762 1880.27 84.8885C1876.78 87.6752 1873.25 90.5 1868.44 90.5C1862.31 90.5 1859.18 84.7582 1856.12 79.1412C1853.19 73.7634 1850.32 68.5 1844.94 68.5C1838.94 68.5 1833.94 73.5 1833.94 87.5C1833.94 95.7005 1835.48 105.102 1836.76 112.89L1836.76 112.892C1837.67 118.399 1838.44 123.101 1838.44 126C1838.44 133 1832.44 152 1817.94 152C1803.44 152 1800.44 131.5 1800.44 116C1800.44 107.673 1803.49 96 1803.49 83.3035C1803.49 57 1757.57 46 1757.57 77.796C1757.57 94.5 1747 114 1737.44 114C1723 114 1701.08 85.5 1701.08 104.411L1701.08 104.415C1701.08 113 1703 123.047 1703 128C1703 156 1692.5 162.5 1676.5 162.5C1662.44 162.5 1658.59 149.488 1655.31 138.4C1652.87 130.17 1650.75 123 1645 123C1634.56 123 1634.72 134.726 1634.93 151.269V151.279V151.29C1634.97 153.761 1635 156.338 1635 159C1635 179.5 1630 198 1616.5 198C1603 198 1597.5 183.5 1597.5 170.5C1597.5 164.737 1598.48 160.644 1599.58 156.088C1600.95 150.366 1602.5 143.912 1602.5 132.5C1602.5 116.1 1593.5 112 1589 112C1582.81 112 1580.54 120.824 1578.26 129.735C1575.92 138.823 1573.56 148 1567 148C1561.78 148 1560.84 145.187 1559.85 142.229C1558.75 138.953 1557.6 135.5 1550.5 135.5C1548.77 135.5 1547.63 135.944 1546.23 136.491C1543.99 137.365 1541.07 138.5 1534 138.5C1527.9 138.5 1522.92 131.884 1518.25 125.673C1514.12 120.178 1510.22 115 1506 115C1498.8 115 1496.67 132.667 1496.5 141.5C1496.5 146.814 1497.35 155.251 1498.21 163.821L1498.21 163.827C1499.1 172.673 1500 181.66 1500 187.5C1500 228 1484.5 230.5 1476.5 230.5C1468.5 230.5 1462 225.5 1462 206.5C1462 203.302 1462.42 199.015 1462.89 194.239C1464.65 176.314 1467.08 151.5 1450.5 151.5C1448.25 151.5 1445.55 152.286 1442.92 153.054C1440.41 153.785 1437.95 154.5 1436 154.5C1427.31 154.5 1424.66 144.271 1421.99 133.969C1419.29 123.522 1416.56 113 1407.5 113C1397 113 1395.5 139.5 1395.5 153C1395.5 153.378 1395.5 153.764 1395.5 154.159C1395.51 167.879 1395.54 191.5 1379.5 191.5C1363.45 191.5 1363.49 176.369 1363.5 169.558V169.538C1363.5 169.352 1363.5 169.173 1363.5 169C1363.5 167.747 1363.7 165.806 1363.95 163.489C1364.97 153.789 1366.69 137.5 1357 137.5C1351 137.5 1348.25 142.75 1345.5 148C1342.75 153.25 1340 158.5 1334 158.5C1327.87 158.5 1325.78 154.455 1323.74 150.497C1321.79 146.708 1319.88 143 1314.5 143C1305.7 143 1303.83 155.667 1304 162C1304 165.035 1304.29 168.599 1304.56 171.863V171.865V171.867C1304.79 174.624 1305 177.169 1305 179C1305 192.2 1298.5 202 1287.5 202C1275.1 202 1272.5 190 1272.5 183.5C1272.5 181.439 1272.97 176.491 1273.57 170.238L1273.57 170.235L1273.57 170.232C1274.6 159.499 1276 144.924 1276 134.5C1276 123.5 1265.5 99.5 1250 99.5C1234.5 99.5 1228.5 139 1208 139C1187.5 139 1186.5 85.5 1169 85.5C1151.5 85.5 1150.88 115.269 1150.88 127.745C1150.88 140.22 1147.37 154.691 1132.33 154.691C1124.39 154.691 1119.39 148.99 1114.66 143.607C1110.44 138.792 1106.43 134.232 1100.75 134.232C1094.74 134.232 1091.23 139.222 1091.23 151.198C1091.23 156.252 1092.39 163.796 1093.73 172.515C1095.57 184.455 1097.74 198.599 1097.74 211.577C1097.74 234.032 1088.72 249.501 1071.68 249.501C1054.67 249.501 1053.64 217.685 1053.14 202.184L1053.13 202.096C1052.84 193.146 1054.4 174.343 1055.86 156.701L1055.86 156.695L1055.86 156.683C1056.92 143.837 1057.93 131.609 1058.15 124.252C1058.65 106.786 1054.64 94.3114 1031.58 94.3114C1008.52 94.3114 1003.51 124.751 1003.51 139.222C1003.51 149.374 1005.48 164.929 1007.18 178.306L1007.18 178.31L1007.18 178.343L1007.19 178.355C1007.91 184.028 1008.58 189.306 1009.02 193.613C1010.53 208.084 1003.51 222.555 988.972 222.555C974.436 222.555 970.927 205.09 970.927 181.637C970.927 158.184 958.897 143.713 945.363 143.713C939.341 143.713 936.594 146.381 933.545 149.342C929.742 153.036 925.469 157.186 913.784 157.186C903.554 157.186 899.715 148.466 895.769 139.501C891.594 130.017 887.299 120.259 875.188 120.259C863.649 120.259 859.926 128.28 856.127 136.464C852.17 144.99 848.131 153.693 835.088 153.693C821.629 153.693 817.504 141.877 813.21 129.576C808.548 116.221 803.687 102.295 786.466 102.295C769.925 102.295 766.416 114.77 766.416 128.743C766.416 135.997 767.497 143.521 768.537 150.755C769.499 157.453 770.426 163.903 770.426 169.661C770.426 181.637 765.915 189.122 756.391 189.122C746.867 189.122 742.857 178.144 740.351 169.661C739.837 167.921 739.386 165.804 738.904 163.537C737.033 154.749 734.684 143.713 726.316 143.713C715.789 143.713 711.779 157.186 711.779 169.661C711.779 176.409 712.953 185.494 714.03 193.835L714.031 193.838C714.945 200.914 715.789 207.454 715.789 211.577C715.789 211.819 715.79 212.069 715.79 212.327C715.804 221.595 715.831 240.02 699.248 240.02C682.206 240.02 680.702 219.062 679.699 202.595C678.897 189.421 681.704 157.851 683.208 143.713C685.046 136.727 684.912 122.655 669.674 122.255C659.516 121.989 656.058 130.097 652.838 137.646C650.021 144.253 647.385 150.432 640.602 150.2C632.431 149.919 624.893 142.544 618.256 136.05C613.086 130.99 608.462 126.466 604.511 126.248C595.489 125.749 589.474 134.232 588.471 143.713C587.823 149.839 590.315 155.965 592.97 162.495C594.425 166.071 595.928 169.768 596.992 173.653C600 184.631 604.511 215.569 583.96 216.567C564.876 217.494 565.242 195.185 565.793 161.628C565.836 159.047 565.879 156.4 565.915 153.693C565.925 152.919 565.936 152.115 565.948 151.283C566.28 127.721 566.922 82.1666 551.378 82.3353C545.472 82.3994 541.855 85.8283 541.855 91.3174C541.855 100.299 536.842 104.291 528.822 104.79C524.561 105.056 521.432 103.49 518.382 101.963C515.692 100.617 513.064 99.3014 509.774 99.3014C502.757 99.3014 500.251 108.782 499.749 120.758C499.248 132.735 494.737 149.202 479.198 149.202C463.659 149.202 464.16 136.727 465.163 125.25C466.165 113.772 466.667 99.3014 458.145 99.3014C446.946 99.3014 444.555 113.649 442.384 126.673C442.126 128.222 441.87 129.752 441.604 131.238C439.098 145.21 437.544 161.141 437.594 182.635C437.369 187.782 438.153 192.027 439.085 197.078C440.232 203.289 441.604 210.722 441.604 222.555C441.604 239.721 429.908 244.012 424.06 244.012C401.74 245.445 402.124 214.545 402.436 189.436L402.436 189.432C402.472 186.573 402.506 183.79 402.506 181.138C403.709 153.593 389.975 128.244 375.439 128.244C361.905 127.745 357.895 136.727 357.393 143.713C357.126 147.447 357.574 150.61 358.049 153.966C358.463 156.888 358.897 159.956 358.897 163.673C358.897 168.164 355.89 185.13 339.348 184.631C322.807 184.132 322.306 165.669 324.311 143.713C326.316 121.757 318.797 102.794 304.762 102.794C290.727 102.794 282.206 125.25 282.206 138.224C282.206 143.808 283.245 147.572 284.349 151.568C285.297 154.999 286.292 158.601 286.717 163.673C287.218 169.661 284.912 181.936 271.679 183.134C255.138 184.631 249.624 163.673 248.622 143.713C247.619 123.753 233.083 118.263 225.063 118.263C220.813 118.263 216.424 120.084 212.117 121.871C208.294 123.457 204.538 125.015 201.003 125.25C196.905 125.521 193.552 122.978 190.213 120.445C187.425 118.33 184.647 116.223 181.454 115.768C174.436 114.77 168.922 120.758 167.419 132.236C166.605 138.448 168.287 143.49 169.923 148.392C171.309 152.546 172.661 156.599 172.431 161.178C171.93 171.158 166.416 179.142 157.895 179.641C149.373 180.14 140.351 166.667 141.353 143.713C141.482 140.773 141.651 137.792 141.82 134.829C142.967 114.657 144.067 95.3094 131.83 95.3094C117.794 95.3094 115.789 139.721 115.789 163.673C115.789 178.689 117.365 194.097 118.541 205.594C119.241 212.436 119.799 217.893 119.799 221.058C119.799 221.477 119.802 221.925 119.805 222.399L119.805 222.406C119.855 231.522 119.956 250 103.759 250C86.7168 250 86.7168 228.543 86.7168 221.058C86.7168 217.791 87.4808 206.062 88.3418 192.844C89.4534 175.779 90.7268 156.231 90.7268 149.202C90.7268 136.727 89.2231 108.283 78.6967 108.283C71.452 108.283 68.3871 118.379 66.5019 124.588C66.1959 125.596 65.9209 126.502 65.6642 127.246C59.6491 143.214 42.0802 136.727 41.604 127.246C41.2698 120.592 36.6917 107.285 21.0526 107.285Z" fill="white"/>
</svg>
