<svg width="24" height="24" viewBox="0 0 24 24" fill="none" xmlns="http://www.w3.org/2000/svg">
<path fill-rule="evenodd" clip-rule="evenodd" d="M10 7V4C10 3.44772 10.4477 3 11 3H13C13.5523 3 14 3.44772 14 4V7C14 8.24949 14.6245 9.41631 15.6641 10.1094L15.7143 10.1429C16.5175 10.6784 17 11.5799 17 12.5452V19C17 20.1046 16.1046 21 15 21H9C7.89543 21 7 20.1046 7 19V12.5452C7 11.5799 7.48247 10.6784 8.28571 10.1429L8.3359 10.1094C9.37554 9.41631 10 8.24949 10 7ZM15 12C15 11.4477 14.5523 11 14 11C13.4477 11 13 11.4477 13 12C13 12.5523 13.4477 13 14 13C14.5523 13 15 12.5523 15 12ZM14 14C13.4477 14 13 14.4477 13 15V18C13 18.5523 13.4477 19 14 19C14.5523 19 15 18.5523 15 18V15C15 14.4477 14.5523 14 14 14Z" fill="#404040"/>
</svg>
