<svg width="24" height="24" viewBox="0 0 24 24" fill="none" xmlns="http://www.w3.org/2000/svg">
<path fill-rule="evenodd" clip-rule="evenodd" d="M12 5C8.8 5 6.8 6.6 6 9.8C7.2 8.2 8.6 7.6 10.2 8C11.1128 8.228 11.7656 8.8904 12.488 9.624C13.664 10.8168 15.0256 12.2 18 12.2C21.2 12.2 23.2 10.6 24 7.4C22.8 9 21.4 9.6 19.8 9.2C18.8872 8.972 18.2344 8.3096 17.512 7.576C16.336 6.3824 14.9744 5 12 5ZM6 12.2C2.8 12.2 0.8 13.8 0 17C1.2 15.4 2.6 14.8 4.2 15.2C5.1128 15.428 5.7656 16.0904 6.488 16.824C7.664 18.0168 9.0256 19.4 12 19.4C15.2 19.4 17.2 17.8 18 14.6C16.8 16.2 15.4 16.8 13.8 16.4C12.8872 16.172 12.2344 15.5096 11.512 14.776C10.336 13.5832 8.9744 12.2 6 12.2Z" fill="black"/>
</svg>
